<?xml version="1.0" standalone="no"?><!DOCTYPE svg PUBLIC "-//W3C//DTD SVG 1.1//EN" "http://www.w3.org/Graphics/SVG/1.1/DTD/svg11.dtd"><svg xmlns="http://www.w3.org/2000/svg" xmlns:xlink="http://www.w3.org/1999/xlink" viewBox="-220 -40 720 70">
<title>History of the Aixada</title>
<g stroke="rgb(104,104,104)" stroke-width=".2" font-size="8" text-anchor="middle" fill="gray"><path d="M-11.429,-40L-11.429,30"/><text x="-11.429" y="40">01-09-2013</text><path d="M74.286,-40L74.286,30"/><text x="74.286" y="40">01-10-2013</text><path d="M162.857,-40L162.857,30"/><text x="162.857" y="40">01-11-2013</text><path d="M248.571,-40L248.571,30"/><text x="248.571" y="40">01-12-2013</text><path d="M337.143,-40L337.143,30"/><text x="337.143" y="40">01-01-2014</text><path d="M425.714,-40L425.714,30"/><text x="425.714" y="40">01-02-2014</text><path d="M505.714,-40L505.714,30"/><text x="505.714" y="40">01-03-2014</text><path d="M594.286,-40L594.286,30"/><text x="594.286" y="40">01-04-2014</text><path d="M680,-40L680,30"/><text x="680" y="40">01-05-2014</text><path d="M768.571,-40L768.571,30"/><text x="768.571" y="40">01-06-2014</text><path d="M854.286,-40L854.286,30"/><text x="854.286" y="40">01-07-2014</text><path d="M942.857,-40L942.857,30"/><text x="942.857" y="40">01-08-2014</text><path d="M1031.429,-40L1031.429,30"/><text x="1031.429" y="40">01-09-2014</text><path d="M1117.143,-40L1117.143,30"/><text x="1117.143" y="40">01-10-2014</text><path d="M1205.714,-40L1205.714,30"/><text x="1205.714" y="40">01-11-2014</text><path d="M1291.429,-40L1291.429,30"/><text x="1291.429" y="40">01-12-2014</text><path d="M1380,-40L1380,30"/><text x="1380" y="40">01-01-2015</text><path d="M1468.571,-40L1468.571,30"/><text x="1468.571" y="40">01-02-2015</text><path d="M1548.571,-40L1548.571,30"/><text x="1548.571" y="40">01-03-2015</text><path d="M1637.143,-40L1637.143,30"/><text x="1637.143" y="40">01-04-2015</text><path d="M1722.857,-40L1722.857,30"/><text x="1722.857" y="40">01-05-2015</text><path d="M1811.429,-40L1811.429,30"/><text x="1811.429" y="40">01-06-2015</text><path d="M1897.143,-40L1897.143,30"/><text x="1897.143" y="40">01-07-2015</text><path d="M1985.714,-40L1985.714,30"/><text x="1985.714" y="40">01-08-2015</text><path d="M2074.286,-40L2074.286,30"/><text x="2074.286" y="40">01-09-2015</text><path d="M2160,-40L2160,30"/><text x="2160" y="40">01-10-2015</text><path d="M2248.571,-40L2248.571,30"/><text x="2248.571" y="40">01-11-2015</text><path d="M2334.286,-40L2334.286,30"/><text x="2334.286" y="40">01-12-2015</text><path d="M2422.857,-40L2422.857,30"/><text x="2422.857" y="40">01-01-2016</text><path d="M2511.429,-40L2511.429,30"/><text x="2511.429" y="40">01-02-2016</text><path d="M2594.286,-40L2594.286,30"/><text x="2594.286" y="40">01-03-2016</text><path d="M2682.857,-40L2682.857,30"/><text x="2682.857" y="40">01-04-2016</text><path d="M2768.571,-40L2768.571,30"/><text x="2768.571" y="40">01-05-2016</text><path d="M2857.143,-40L2857.143,30"/><text x="2857.143" y="40">01-06-2016</text><path d="M2942.857,-40L2942.857,30"/><text x="2942.857" y="40">01-07-2016</text><path d="M3031.429,-40L3031.429,30"/><text x="3031.429" y="40">01-08-2016</text><path d="M3120,-40L3120,30"/><text x="3120" y="40">01-09-2016</text><path d="M3205.714,-40L3205.714,30"/><text x="3205.714" y="40">01-10-2016</text><path d="M3294.286,-40L3294.286,30"/><text x="3294.286" y="40">01-11-2016</text><path d="M3380,-40L3380,30"/><text x="3380" y="40">01-12-2016</text><path d="M3468.571,-40L3468.571,30"/><text x="3468.571" y="40">01-01-2017</text><path d="M3557.143,-40L3557.143,30"/><text x="3557.143" y="40">01-02-2017</text><path d="M3637.143,-40L3637.143,30"/><text x="3637.143" y="40">01-03-2017</text><path d="M3725.714,-40L3725.714,30"/><text x="3725.714" y="40">01-04-2017</text><path d="M3811.429,-40L3811.429,30"/><text x="3811.429" y="40">01-05-2017</text><path d="M3900,-40L3900,30"/><text x="3900" y="40">01-06-2017</text><path d="M3985.714,-40L3985.714,30"/><text x="3985.714" y="40">01-07-2017</text><path d="M4074.286,-40L4074.286,30"/><text x="4074.286" y="40">01-08-2017</text><path d="M4162.857,-40L4162.857,30"/><text x="4162.857" y="40">01-09-2017</text><path d="M4248.571,-40L4248.571,30"/><text x="4248.571" y="40">01-10-2017</text><path d="M4337.143,-40L4337.143,30"/><text x="4337.143" y="40">01-11-2017</text><path d="M4422.857,-40L4422.857,30"/><text x="4422.857" y="40">01-12-2017</text><path d="M4511.429,-40L4511.429,30"/><text x="4511.429" y="40">01-01-2018</text><path d="M4600,-40L4600,30"/><text x="4600" y="40">01-02-2018</text><path d="M4680,-40L4680,30"/><text x="4680" y="40">01-03-2018</text><path d="M4768.571,-40L4768.571,30"/><text x="4768.571" y="40">01-04-2018</text><path d="M4854.286,-40L4854.286,30"/><text x="4854.286" y="40">01-05-2018</text><path d="M4942.857,-40L4942.857,30"/><text x="4942.857" y="40">01-06-2018</text><path d="M5028.571,-40L5028.571,30"/><text x="5028.571" y="40">01-07-2018</text><path d="M5117.143,-40L5117.143,30"/><text x="5117.143" y="40">01-08-2018</text><path d="M5205.714,-40L5205.714,30"/><text x="5205.714" y="40">01-09-2018</text><path d="M5291.429,-40L5291.429,30"/><text x="5291.429" y="40">01-10-2018</text><path d="M5380,-40L5380,30"/><text x="5380" y="40">01-11-2018</text><path d="M5465.714,-40L5465.714,30"/><text x="5465.714" y="40">01-12-2018</text><path d="M-60,-200L100,-200"/><path d="M-60,-400L100,-400"/><text x="108" y="-200">20</text><text x="108" y="-400">40</text></g>

<g stroke="rgb(INF,0,-INF)" fill="none" stroke-linecap="round"><path style="stroke-width:10" d="M-20,-10L0,-10"/>
<g font-size="8"><text style="text-anchor:end;stroke:white;stroke-width:3;fill:white" x="-25" y="-8">10 <![CDATA[]]></text><text style="text-anchor:end;fill:rgb(INF,0,-INF);stroke:rgb(INF,0,-INF);stroke-width:.2" x="-25" y="-8">10 <![CDATA[]]></text><circle style="fill:green;stroke:green" cx="-20" cy="-10" r="2"/><text style="text-anchor:start;stroke:white;stroke-width:3;fill:white" x="149" y="-8">10 <![CDATA[]]></text><text style="text-anchor:start;fill:rgb(INF,0,-INF);stroke:rgb(INF,0,-INF);stroke-width:.2" x="149" y="-8">10 <![CDATA[]]></text></g></svg>